<mxfile host="app.diagrams.net" agent="Mozilla/5.0 (Macintosh; Intel Mac OS X 10_15_7) AppleWebKit/537.36 (KHTML, like Gecko) Chrome/126.0.0.0 Safari/537.36 OPR/112.0.0.0" version="24.7.17">
  <diagram name="Seite-1" id="NQAgE9cCAYu91BQRF8UC">
    <mxGraphModel dx="851" dy="551" grid="1" gridSize="10" guides="1" tooltips="1" connect="1" arrows="1" fold="1" page="1" pageScale="1" pageWidth="827" pageHeight="1169" math="0" shadow="0">
      <root>
        <mxCell id="0" />
        <mxCell id="1" parent="0" />
        <mxCell id="Q793fqZeEDO45ezUEoH8-30" value="" style="whiteSpace=wrap;html=1;fillColor=none;dashed=1;dashPattern=12 12;" vertex="1" parent="1">
          <mxGeometry x="80" y="160" width="520" height="340" as="geometry" />
        </mxCell>
        <mxCell id="Q793fqZeEDO45ezUEoH8-12" style="edgeStyle=orthogonalEdgeStyle;rounded=0;orthogonalLoop=1;jettySize=auto;html=1;entryX=0.75;entryY=1;entryDx=0;entryDy=0;" edge="1" parent="1" source="Q793fqZeEDO45ezUEoH8-1" target="Q793fqZeEDO45ezUEoH8-4">
          <mxGeometry relative="1" as="geometry">
            <Array as="points">
              <mxPoint x="420" y="310" />
              <mxPoint x="370" y="310" />
            </Array>
          </mxGeometry>
        </mxCell>
        <mxCell id="Q793fqZeEDO45ezUEoH8-13" style="edgeStyle=orthogonalEdgeStyle;rounded=0;orthogonalLoop=1;jettySize=auto;html=1;entryX=0.75;entryY=1;entryDx=0;entryDy=0;" edge="1" parent="1" source="Q793fqZeEDO45ezUEoH8-1" target="Q793fqZeEDO45ezUEoH8-5">
          <mxGeometry relative="1" as="geometry">
            <Array as="points">
              <mxPoint x="420" y="310" />
              <mxPoint x="530" y="310" />
            </Array>
          </mxGeometry>
        </mxCell>
        <mxCell id="Q793fqZeEDO45ezUEoH8-14" style="edgeStyle=orthogonalEdgeStyle;rounded=0;orthogonalLoop=1;jettySize=auto;html=1;entryX=0.75;entryY=1;entryDx=0;entryDy=0;" edge="1" parent="1" source="Q793fqZeEDO45ezUEoH8-1" target="Q793fqZeEDO45ezUEoH8-2">
          <mxGeometry relative="1" as="geometry">
            <Array as="points">
              <mxPoint x="420" y="310" />
              <mxPoint x="210" y="310" />
            </Array>
          </mxGeometry>
        </mxCell>
        <mxCell id="Q793fqZeEDO45ezUEoH8-1" value="ArtNet&lt;div&gt;Receiver&lt;/div&gt;" style="rounded=0;whiteSpace=wrap;html=1;" vertex="1" parent="1">
          <mxGeometry x="350" y="370" width="140" height="70" as="geometry" />
        </mxCell>
        <mxCell id="Q793fqZeEDO45ezUEoH8-27" style="edgeStyle=orthogonalEdgeStyle;rounded=0;orthogonalLoop=1;jettySize=auto;html=1;entryX=0.5;entryY=1;entryDx=0;entryDy=0;fillColor=#dae8fc;gradientColor=#7ea6e0;strokeColor=#6c8ebf;" edge="1" parent="1" source="Q793fqZeEDO45ezUEoH8-2" target="Q793fqZeEDO45ezUEoH8-24">
          <mxGeometry relative="1" as="geometry" />
        </mxCell>
        <mxCell id="Q793fqZeEDO45ezUEoH8-2" value="Player 1" style="shape=process;whiteSpace=wrap;html=1;backgroundOutline=1;fillColor=#dae8fc;strokeColor=#6c8ebf;" vertex="1" parent="1">
          <mxGeometry x="120" y="200" width="120" height="60" as="geometry" />
        </mxCell>
        <mxCell id="Q793fqZeEDO45ezUEoH8-11" style="edgeStyle=orthogonalEdgeStyle;rounded=0;orthogonalLoop=1;jettySize=auto;html=1;entryX=0.25;entryY=1;entryDx=0;entryDy=0;fillColor=#f8cecc;gradientColor=#ea6b66;strokeColor=#b85450;" edge="1" parent="1" source="Q793fqZeEDO45ezUEoH8-3" target="Q793fqZeEDO45ezUEoH8-4">
          <mxGeometry relative="1" as="geometry">
            <Array as="points">
              <mxPoint x="260" y="330" />
              <mxPoint x="310" y="330" />
            </Array>
          </mxGeometry>
        </mxCell>
        <mxCell id="Q793fqZeEDO45ezUEoH8-15" style="edgeStyle=orthogonalEdgeStyle;rounded=0;orthogonalLoop=1;jettySize=auto;html=1;entryX=0.25;entryY=1;entryDx=0;entryDy=0;fillColor=#f8cecc;gradientColor=#ea6b66;strokeColor=#b85450;" edge="1" parent="1" source="Q793fqZeEDO45ezUEoH8-3" target="Q793fqZeEDO45ezUEoH8-2">
          <mxGeometry relative="1" as="geometry">
            <Array as="points">
              <mxPoint x="260" y="330" />
              <mxPoint x="150" y="330" />
            </Array>
          </mxGeometry>
        </mxCell>
        <mxCell id="Q793fqZeEDO45ezUEoH8-16" style="edgeStyle=orthogonalEdgeStyle;rounded=0;orthogonalLoop=1;jettySize=auto;html=1;entryX=0.25;entryY=1;entryDx=0;entryDy=0;startArrow=classic;startFill=1;fillColor=#f8cecc;gradientColor=#ea6b66;strokeColor=#b85450;" edge="1" parent="1" source="Q793fqZeEDO45ezUEoH8-3" target="Q793fqZeEDO45ezUEoH8-5">
          <mxGeometry relative="1" as="geometry">
            <Array as="points">
              <mxPoint x="260" y="330" />
              <mxPoint x="470" y="330" />
            </Array>
          </mxGeometry>
        </mxCell>
        <mxCell id="Q793fqZeEDO45ezUEoH8-3" value="Track&lt;div&gt;Library&lt;/div&gt;" style="shape=datastore;whiteSpace=wrap;html=1;fillColor=#f8cecc;gradientColor=#ea6b66;strokeColor=#b85450;" vertex="1" parent="1">
          <mxGeometry x="220" y="370" width="80" height="70" as="geometry" />
        </mxCell>
        <mxCell id="Q793fqZeEDO45ezUEoH8-28" style="edgeStyle=orthogonalEdgeStyle;rounded=0;orthogonalLoop=1;jettySize=auto;html=1;entryX=0.5;entryY=1;entryDx=0;entryDy=0;fillColor=#fff2cc;gradientColor=#ffd966;strokeColor=#d6b656;" edge="1" parent="1" source="Q793fqZeEDO45ezUEoH8-4" target="Q793fqZeEDO45ezUEoH8-25">
          <mxGeometry relative="1" as="geometry" />
        </mxCell>
        <mxCell id="Q793fqZeEDO45ezUEoH8-4" value="Player 2" style="shape=process;whiteSpace=wrap;html=1;backgroundOutline=1;fillColor=#fff2cc;strokeColor=#d6b656;" vertex="1" parent="1">
          <mxGeometry x="280" y="200" width="120" height="60" as="geometry" />
        </mxCell>
        <mxCell id="Q793fqZeEDO45ezUEoH8-29" style="edgeStyle=orthogonalEdgeStyle;rounded=0;orthogonalLoop=1;jettySize=auto;html=1;entryX=0.5;entryY=1;entryDx=0;entryDy=0;fillColor=#d5e8d4;gradientColor=#97d077;strokeColor=#82b366;" edge="1" parent="1" source="Q793fqZeEDO45ezUEoH8-5" target="Q793fqZeEDO45ezUEoH8-26">
          <mxGeometry relative="1" as="geometry" />
        </mxCell>
        <mxCell id="Q793fqZeEDO45ezUEoH8-5" value="Player n" style="shape=process;whiteSpace=wrap;html=1;backgroundOutline=1;fillColor=#d5e8d4;strokeColor=#82b366;" vertex="1" parent="1">
          <mxGeometry x="440" y="200" width="120" height="60" as="geometry" />
        </mxCell>
        <mxCell id="Q793fqZeEDO45ezUEoH8-23" style="edgeStyle=orthogonalEdgeStyle;rounded=0;orthogonalLoop=1;jettySize=auto;html=1;entryX=0.5;entryY=1;entryDx=0;entryDy=0;" edge="1" parent="1" source="Q793fqZeEDO45ezUEoH8-22" target="Q793fqZeEDO45ezUEoH8-1">
          <mxGeometry relative="1" as="geometry" />
        </mxCell>
        <mxCell id="Q793fqZeEDO45ezUEoH8-22" value="" style="ellipse;whiteSpace=wrap;html=1;aspect=fixed;fillStyle=solid;fillColor=#000000;gradientColor=none;strokeColor=#FFFFFF;" vertex="1" parent="1">
          <mxGeometry x="370" y="540" width="100" height="100" as="geometry" />
        </mxCell>
        <mxCell id="Q793fqZeEDO45ezUEoH8-24" value="WaveOut 1" style="rounded=1;whiteSpace=wrap;html=1;fillColor=#dae8fc;strokeColor=#6c8ebf;" vertex="1" parent="1">
          <mxGeometry x="120" y="60" width="120" height="60" as="geometry" />
        </mxCell>
        <mxCell id="Q793fqZeEDO45ezUEoH8-25" value="WaveOut 2" style="rounded=1;whiteSpace=wrap;html=1;fillColor=#fff2cc;strokeColor=#d6b656;" vertex="1" parent="1">
          <mxGeometry x="280" y="60" width="120" height="60" as="geometry" />
        </mxCell>
        <mxCell id="Q793fqZeEDO45ezUEoH8-26" value="WaveOut n" style="rounded=1;whiteSpace=wrap;html=1;fillColor=#d5e8d4;strokeColor=#82b366;" vertex="1" parent="1">
          <mxGeometry x="440" y="60" width="120" height="60" as="geometry" />
        </mxCell>
        <mxCell id="Q793fqZeEDO45ezUEoH8-31" value="&lt;div&gt;&lt;br&gt;&lt;/div&gt;&lt;div&gt;Config&lt;/div&gt;" style="shape=note;whiteSpace=wrap;html=1;backgroundOutline=1;darkOpacity=0.05;size=21;fillColor=#f5f5f5;gradientColor=#b3b3b3;strokeColor=#666666;" vertex="1" parent="1">
          <mxGeometry x="120" y="370" width="50" height="70" as="geometry" />
        </mxCell>
        <mxCell id="Q793fqZeEDO45ezUEoH8-35" value="" style="shape=image;verticalLabelPosition=bottom;labelBackgroundColor=default;verticalAlign=top;aspect=fixed;imageAspect=0;image=data:image/gif,R0lGODlhPQaMBYAAAAAAAP///yH5BAkAAAEALAAAAAA9BowFAAL/jI+py+0Po5y02ouz3rz7D4biSJbmiabqyrbuC2/ATNf2jef6zvf+DwwKh8Si8YhMKpfMpvMJjUqRsar1is1qt9yu9wsOi8fkcnaKTqvX7Lb7DY/L53Sh+Y7P6/f8vv8PGCg4yFJneIiYqLjI2Oj4CEAoOUlZaXmJmam5ySkD+QkaKjpKWmoa1Jmqusra6voKGyt5Sltre4ubq9sj2+v7CxwsPEysuXuMnKy8zAxV/OxZCz1d1Wy9Q51Ncs3d7f0NDqk9/nBLfm4Srk6Err3+Dh8vP8/Tbp9rn99Bz4+q/9ovoMCBBGn9I4fvoEIKBRvyWmjJocSJFCtOgUhNF8aN/gwserTB8c/HkSRLlgxJbBfKlSZbrizTMqbMmfNeBjtmcyNNlzm57PwJNCiynr2GElUolOdRGEmbOn36aCmsZFL1QVVa9cTVrVy7rsnKShnYdl5Njh1RNq3atUPOplrmdhxbknH3zb2Ld25dY3D3TstL128FwIQLQxV8iRniZ4ZHLobQOLJkmY8nWassbPJHzAo0e/48kfOgy6J9gfZY+rTq1TVLA7rmWhZri5hn277NLbaf3LoB4g69+Lfw4Ql76+lmvBVx4HuXO38eKnkeb9JXQXfY/Lr27Yaq3/nmvRP3hm7Hmz//NfwYcOo3oSc49r38+UvaiwlnHxN9gVn3//v//0N+X6gjYEQA8iPVgQouOEOBXazjoGUMttbThBbuF6EW72RIyIUUvuRhiOdxiMWGJAYiojw2pcjidSdWA8+LIrUYI0o03jicjEzVqOMeOPKI0Y9CztajCyoWOd2QBOqkZJOeIbnCh1CS4eSSC1WJZWNTpkDPljBlyR5SYI55l5fpdGnmfWRSd9CabqaV5jYIxjngm8hZZWeeh9EJQkB8eqHnnWQFSmhQf37A36EaFkoaOow+OpOiHAwk6RmQNuPopZo6VmkGlHZqxaaKISRqqcyByhB8qO5oqlHutArrp6tOUNCsL8RKVTa47oqmrZCR52uUvKqU0bDGWhlsA//YJcvlscUx5my0vDHb0bLUliDts8Nky21f1yZw6rchdGtOMeSeq5G4CFCkrgjoSpPSu/Ke0q4BFdXb57ymxKtvv6DgSxu+dvlLSmYEH9xIvagJPCnCo9zkcMSHKLwww55KHN0vGG8sR7ucWowBx/+aJnLJ6YmbsDggh2xyVEW1DHMU6joSwCcrXxAzzbLlzHN9KKes8s2pupyPYTv3jLQRPzNygM1C0xr0Uk/FknTV7Hyrc81RP13O1nVF6pvVYvuwtCLges31Ak679rF1Y7+NzbVZ24t22mcTnVy4b8HN9w1YM91Z3XbTjXd4tYbVd+INUjt304IPvraAiaqiuOL+cgOu9uNpRx7hnHtXzjfjCVdb+OCOl56hlHyBDrfomAeu+dOcvxjP56yPzWzjsOtu+uw6muje7W/nPrqysQvte48QBi+82MnyvnvxphMOPZL4rd581c9Lbzzqdic/ZZj6ZW91sNVH/3rvxxfJ5vjkJ20+9w6AL/v61k9r4PtIx7/IYPYLTL804Y8S+oOfrc6XOe/VT4F8gk3+CpgzXyEwgRO0WAAbiKlKQLBnB5RfBC5owf+ZKYME3GAEZ1VB9KWPayD806gkZEKYodCDEmghwERIJ291KIYyXFUKKUjDm9nwUDoUBA97CKofkk6JM8MhBl01miOazIdBrKETL8f/wBniZHqccCAXGZbFD16ReGGk4ha/6L4XopFiK8TZGLdXRjMSa40abBQdy9a/gTERi3vs1BnvOAs7AtJ1edRjFQH4RkX9cZAoEiQj+VfIhiVSi31MYroe2UgSYlKCh7TAEPnYSTLiYpOvcSQpLdlGDYwMeZOU1BxPeRxTwlKRofRkK1FZSTnaYpY+kiUvnxhJRH0SjrmkJLx+aQYvIpOIxZzfLSs1TGIec5lq0iQ1c1hLN8YRlKkEY7muGQZlgnOEzezaNkWZTTzSa5x1siY7w5dObZbTj89E1TffuQVx4pN98zRnP2l5TnXua5+LcidBZfRPZwaUkwv92zQPCiOD/kKUQw21ZT2BGc8mPnSiRvIlRwuUUH9m1JjdFOJGPyosiaJUciNl2UXjFE2NrnOlhfAoTQ0XUpGWlJvBhNxJbyonlQLVOznV6U7ReVSTznSoZxIqU41TUVW+lJxRlelAnxpUNWKVqC2NRlUBWtQOLnWr+XIqWUXz1Yul1YVTZehVz+oBfcI1NmEV41oxmtQFlmKuwjQrXxFzV3nW9X6B5WnG/urVIiKWM4O1a2OV11ZIFmyxatUqZR9TWMF2lZmZNWxMLyvXywqmsxZ9LEIjK9mHidZ/fl1tf0z7K9T+TrZuVa1rrdja20oNtrHlLUVpW1tR6Naxih3uWXxr1J4i/1W5axyrcVUIxefGB7nJTYTHgBvcVUoXuovcblWoW13rCtRsmHSud0Pr3QqBV6GkhWx7HWrb9FKvuPLNyXrDO7Hxire8b00veutro/uyV8A4fS98hQvg/wKYIwaWaoNJ9Fm9Hla+Cl4wRB5cWQJXJ8KsnCyFbWrhK2l4wHl1JXaXe+KDVjjE/8Cwg10M0hSnlsNnXTGLizZi/HaHkJuV8IS3a+MbZ6rHKtBudskLy71+OLdCJhWRiyzj9tC4wwj2L4ibPGTmAmrK/IQxj4383CBjWVc5Ju6Tu1xmE8dXumIe81/S3Fs4MzbK0uQyU9vsZnPJWcc7PvJ+Z6lkIF85z/5vPnNNvaweOyu1ymweNKH1bOhDI5qrk0bxnvnL5EcbLNKS5jSE6VxnUF8Tz5ommadTWum8idrPl2YkqUt9tBJvOdVQXTWrZc3XV8M6bKdGdav9omgqg1m3ut61cn5tZlxvKdiLHvZti21sytG6r9Nmm61vrWXRQjva4kE2bqudmmuL9cfEdjS3eZ3t7zA7xuAet7NXu+1zZ6LdcV03S+lNUnyTMt7yToy3h6ZvwIrb3QM/Jb/7XcJex+Dd2Aw4LhlO2YMjPJAKX3jBg3Nxe6752eaeOPMqziqHZ0fk0Ny4ayXu8Uwqm0r2lnLGNU7uk3c85f7+t2ZXflqSlzzm8P6eOc3rCPKI6vy4L3940QeJ8p/30uYuHTpYWr4yD5c700qHIc6TCfUNH33nPAetz6tuRKcbMui1FjtnIY7YpIMd62S/AtqhlHWQmVzbX1/7jNru9rj3Ru/e7HrE6253Pmx9XHyn6+DV/PZcAz7wscR7iQ6fIMifvfDgVDvj2+n4vEueKJRnY+LnavnLP4jp9d68es3OVr8vNvSiL2jmH2/6FcUepnP/O9VbjwfUE372LOG9ABkt89vj/kukL6vuQeR7qn6+xosfPhiOv3voB1j6v1f9X1nv/JBfvZTJD1L3lw38ngs/+8+nPrWLH5LOe179yMQ++VtgfuOjn0nxB/6/9RU//vf7pP6l53+bvg9P9wd6zad/sLd9Ycd+wAaAcBd+dJd/BWiAB4iA/ocnFIhmCchL7geBTSWBEzh/F7aAhLV8ZKWBG4gWFth/HygmKDhbAghXJWiC0ZdutqOC/8eCOTeCWwWDMZiCM0iDrzdyNRiAOYhVO8iDkgSE1XSDchGCF9iEiPSAR+hrPihtT+hkQsiALsh8USiFzYKFWfWFWZaE+tWBK2WEXVhaZZhwS1gsbPhpWkiCBIiG2OKGPaiGuoGBB2aF6ycWc4h5VIg4efhadZg6Deh1XOiH7kKIdgiI+SGIX7aIlvZKiWgpYciBkQgxmOiIhniIlkWJQv53hw9kiWSmifZRe7bniZ+ofY14bHtYaKNIO5yIivSlivBXimMXinN2i4kmi6snh7X4YrkoimP4Xa74hkRYhL8IjDf3Z9CAjKq2iwX2jHemjMvIWsS4dNGIbsLoY9oIc6lojVrhjYkFi5BWjr/Vi2lXjeGYbM34iue4LcZYiOl4fevIjiTGirE2jlUIj51zir6IiPfYjogghth4ev3oIP8IkOAokDKYjy/ziLK3j3tHj/UYkA3ZPQZ5dxPZRfLoj3C4hQyJkbjojq8Skb3HkdZWkfgnkiMZjA8JDNMYbik5kyAZhxfpkutCk0iIkBDZk5u4kgOIkzmpNT85hRo5ff9GyYsKqY5DmZMeeSsnmX5QCZRB+YL2OJJSyX1UORVc6XJWeZVOmZU7eX5IyWBeuZQ2eZMtSZRQQ5aMCJNohZaUBpYhSYtteY3cuI16SXRviXFM2ZRsiZd8Rgfep5Ui5pcCV5d22YeDmWFxCS1zyY9mSU+AGZh36ZhxBpnmmJgqR5lcp5ZriZmZmZF8STWHaYNKKR39NVxnmIiSuYqmWYyd+TVSF2ZYyY6oSXGw+XGfCVahKZqNSZpu6ZtrqJrdRpvlEWiNJpbhqJtWl5yCx5uGZ5vG5ZpoOJ0Wl501d5x4uJzMKZjDWZTdGSoyqYDR+XTfeZvNuYzbqZ3omSTwGXn/6mmduAmMzzmMxVmQmylsixmW4Uma7gmK+nkO+Okl5lWf7KmKBpqfsmlfAqqY9JmgAOqYDAp0EBpF8sl5CNqa9rmgGnqCFvqODjpjwPmfozmcInqhIKqEBDqE1QmeKBqgLBqiNFp+NjqVrCloCvqaGFqeKsqZJJpv/smSMlqhOKqIPrqRLuqElumAFEqUQMqdSJpPSjpdHLqeUPqUVJqkXFqJ5BmhOrqjWjqWXip/YLpDZlqBWDqhRtqWUppGajqg/HldBmFh11mAcDpv5jmIaFqbPzWmbrqlclqWTBqkdKqHEnpeHtqFeoo9hNpRkGqSgBqowime8yWkpGil8emn/31ppyGGp++3qfvnqKcpqW1IqZWaK5eKqYhqmKPKdp3ap58Kqox6hKXam4a6abI6n7t0Y6HqfLiaq7oak7CalL7KYsA6fMI6rK56kMT6lfdUqzwag8zarM4qkbz6rMiarLZqgtb6qNrKqdBKl9I6rWRqjeB6rUgml6eaidpyroJ6j+oaruRqquKao5ckZMp6efS6riX5l/hKf/q6r96ap8YaTnz6oO6qj/DardR6sAibsP4ap5nqXpNYsBCrfxT7rwTZrgK7gt31qwYrqhLbovbqChx7pdHVZPxqdyrbsflVGybLhKvqZi67djBbrxa7n+xqVSKbsej6iTobs32GWf80O6JAG7Tyep9Ie7Io6zYMi5xMq6osO6ggK51E64E8W5VUW7VKi5FaW7R1MLNSu6cay5g2G6ViO7aFebRm26Bqm2c4+3Ns27ZzUBl2G7Ikm7ZWG7Z6u7PYiphYe6hea2Vo23qAG7g+G4RQ26t0a4Z826+Ku7gA66mOu6HgYWyQO3GUW7keO1pO24qau7mSy3iee7aiG5Vw2wfLE22c22+o+7ky27hcW7bXw22wK2+ym7qs23SYO7DIUrqIG3gKG6aEG4G2e55A8rqmm7Oqm42+m4bKGxe9cm6627zQG73I+6Pc27u1g3DYO7zem6Ha64Xka5yqk7vOq3TGm7fuu6b/wDup/ZBy4gtrvPuD8gud1It8wNK57Etz8Pu2+Dt60muLerO7AFy/5rsbAjwoBowCmxHACvy/DNy6Jrq3/HsPJ1G3FBy+BDyZ6NtpGqypWLHAxNu+FtzAIOx6+pu+PwF29ktoDqyLKuyQgvuuehHDHpzAEEyqNnymOBybHvKyPLy+QLzCSEySltt4IlK8Rpy9IjylUhzBe5gipwvFu0bDNanE5CjEc6ogk4vCHrfFXEzFl0jCN3wgoifDWFbGZnzGYJjGauwfiZvFpfbGcDzHgQiPDIJ7bby0LtxiGPzA/RjGf3zHj5bHKtnFv7vHdIwewZrIc8vCPunDd4OQ/5F9/4D8sJe8Hou8q4JcmpG8yZN8s41cvp7cqoybpqRMfpx8p5WsMaBcrJH4HhErtKWMyqkcx0HMyru5HRAIywkmy7NMy6amlNzxrabcssVszLv8baJMmESyzGMcxb2cv9Icq9qMj8LBg8O8ZKqsbs58vtzczbYhheC8qNC8v9jsxb+8orfRqMzcye4cwub8tPD8wqyBnfQcy+y8z49csV98o9Tcz9Z8v+QcjwpNh9qIzn6ozlkqzk0MwZ7Lz5QY0W2Kz2d5zHupz3GrJUPrz8QM0CDNxIO70ZoZ0h+K0IrM0Pzy0pBMu9mcF+k60uFszx5N0Mic0ipd0zbd0pRc0gPd0/8tLNAHDBjzetPrPNFLmtMAV9Q+DScCmdHB19RO/dTRfNSRuhZlmstFPNSza7TBu9VIXRZXa7hgHdbfm9VSDbope9ZrG9RuHNNJG9Xde9cDKRSDWdWdeNWeabayfBWZ2dezmNcoWdfvfNJTaygputQdmtioGtibuteXWtiXedj9G9mOvNMUbcLiedkW+detLLXODDasejpf3cFrfc+ZPcKd7dkBg9qYnNYpLEVpQNawHdvWMtvchbEbe9snk8G6vdt+0tvTnKrLGtxq8KquTZzGfdx6TbDAvdzMjdJlnbzgG93PbanUXd1oAILRybzbnZfd/crfLdzxi91fGtolO9f/C4be6Y1j6Kna5L1EtV3B8Q3ew/3R9yqm9o3GcqvL+r3fgyyfyQ3gMu2wkkzgBa7exI3VRJrg5S3gyt3guG3gVMytE97Q9d3DF34RGe7cj+mkHM7ZfmvHII7h8x3HCG7iJI7ibKziK77BLLrhL16oMY7FM07jPbvYz6yoOP6SFS7jPO7gPv7Wdk3IQq6T7/21Ru4ELD7iPAmjTH7iYPvEUH7kVzjlir3kTN7eN6Xl8j2/6z2x/23lUG3eYjzmIY7kM13CVZ7m3E3kat3mUlDjT+3icw5Ea57ld+7mXG7m+SzhYP7YQgnoeP7mY12zaM7no1znO5zoWy7Zg/7JbPro/7493Ts+6You6BAez3Ke6Zq+4M/b6ZTujEp846Pe55Fu26fu6WUO6ibN2hzn5LYO64Fe6bNO66Otg4f+67mu60qe5IXs6KMe5hMl7NYd57ze675Ojbcufsse68QO53ke5MgO7NFO7cNeuD8u64UO4MmuYt2O6gvd1qRe6wuJ3zNs7uceypY+rqL+6OS+T+/e499e7CJO73Nu7/iE7/Bey+l+3/1u5f/OTgGf7+je5VVMq6yO8OOk8ALP0/K+vSXO4RE/ahNP8Q3r7B2J6UKu8dTE8R3v3xZ/8Rg/7tseuSXv7QPf8FD28Hw+8u3n8i8P5Ciftcf+4jWfgTdv8nAtvf97nuA+D2hAj/OWrPM7z/MTbvQGh/RJ7/H9nZpNv/LSjuhR7wwwHfNmbfBFz/LK3tHNhr6bneNfTthhD1FoT0fi/ux4u61fT95Pv0ljT/bka/Znb/dNi/XB2fXRKrF5r/eCr9GuPr4Er5x7T3yIT+Fuz9dqf++Kf/d/3+pU39zZPveQD/CSH3Vsz8sf35UhH910j3ScP/lLX86ov7UqD9qan/Cm3/mwP2uMP71yj9qkf0eej2nkTPgKvu4fhfttL/uxz/u/X/Csn/Z9P1S6X/fDX6V/TfStr/xAxfy7P6q936VWL/0ejtO0H7rOz96qD8yYz6rB/0XV3/zgr3neD+P/6M/33H+40J6vlG38yA361er6y+T+6S/Y9X/OBAAfU5fbN0Q5abUXZ7159x8MxZEszRNNVfJp3ReOkZWu7RvP9Z2P5B/I6A2JReOxF1QukU3NEgpzTqmY6JVZ1W65Xe8XhxWPZ2DzGZ3WkdkH9RseD7fb8hx9bNeH8H33HjBQcHDKz/CFMFFxceXwihEyssrxUZKPMsgyELNO0/MT9I1z1CDU9DSOFAiVtdVDddWVAlZK9oy20lZ3l3cD17E3WLjx12X4WLMYkVfZAVmrOfZ5mjoyGq86W/u6Qdt7j7t7Nzzh+4h82Vx93Qs9jx3e1b0svh56/k8X334N35kfYMAa/v6iCDS4iOBBhTwIAmA2byGxhgoiVrRYYaKSixvTJOT4kYVHW/tAjshYrmRKeyelqXRpRORLmRhjyoM4swPLfDh5HtMpo2dQGzWFumyo72ZRCz9LKXXaimmtp1NBEKW68ejIpFcDROX61VpUY2DJzvJX9mNWm+7KMkX7FpDYsXDBWqUrUC3UrV/d3vWLRm6Lv1ftDuaXFxVJsl4NN74XWJzjooUls0N8SvHivpU5E4H8rzNOyqG/TVyLDu5m0quHfhbC+uVo2NUuh8qs+eds3Shcv96d9uzvdaZZ3catU3jyD70hKL8o27mw2p+MHz8ZHfsF5hSzK4Tefdx3RtWt/mcED347yvMBxa8/vRcU+bqq3QtPT69+vOn5wwfHDB8txvjb7b6dBlSnvQNN2U8S+cojTkHYCmwqQnMSrNATBsNiazD6MKxsQoc+3Ma/EftzEBIU58vNRBAnbJG2EmF8j0PbAEzNwxnpClFHZC7sESENg6yxQxaBvIvHI4P5UUlChFRExQchbLKtF6lEKsorx3vSyRt3zFHLp5IMU68syUyEy0HMXBG5M6ka000bZYyzQSbtWJPN6+h0Cs49k5nTzxTtTMVLJMEM1CgrEa0T0EXRHBQOPPPU01GZ+qz0UUkxFQVSNTTly8hNU7pU1Lg6LbWLNE0l0sU2UQWuwFfV/mxUVnBOvaXQvwSstSJSeeX0019TvdWMYEENVViDfE22WFqZBdbZWVnl7NBn4VnW2mGNzbYQYr/Y9liWuAUI23Gp8NbcIabcclpqq003xljhbSfaeemtd1XUJHzXXp8U7fdcdAGeQ+DH9N3X1YHjvU/hgMFtmKGCJ8nVsV0h9lfei2GSWOMUVCW03dAs7vihjElOAt+TkfgYWnJ+G1llGpmLOeKUafaMYycerjLhm8tk2GeCKQ66CJY7GloymImm7t+lPc7Z6eWgPgfppPmNGsqmsS5h6q19MRrXkFlT2uusTS7bJJvRbk1tT6tuVdy1NwRa7kt2rtvutgF722pk/vEWpNy/abpb8Fe6VpfvvnsuXI/AGe/q8Mchj3wHwt+6WnIwHGeccsnB/jZxuCnNHGS6STdL79NFWDdfl7EjW/V7TY998tBpr6pzoV1/HfPbm9j8789950B4Liz/cvHhtwAe79xJL97g3Xn3W/mJzz4d+uqtcH4g292lXvvftX4+9fCJz75bsZOD3XzEr88c/fZRP35j9dcHX373ZyeffvlZl6N/yEte/lD2Ps+Vj4AZiN/KvCey3iVQBcxD2wIh+L9INdCB+IMg2/Z3wADmj4JFw2AG47bBmnWQc9yjnQXdZj/nsM+ETzNg4VR4uxDqT3rugWEMTSDBrd1wg0A8/2EOdahBHp7Ah1iroQ2F2A8XRmeHR1zd+ATXxAouMSRPhOIDpZgTKgYPgV1cihVv8EHDRFGM55th3ch4xTCKT4vTK2Eae/hFNr6RjhNgYbPiuEUj5vFra1xbG4OIxbwRkT9oBOTgUHhHPC6ydmbsXh/lOEdIelGQE3zkJQkZwRES6I+XnF96PChJHu5RdogckCI5aUdNmvKIneTNJ0EZSlFGcjuPk6UJUWk8WtZygLfUoyu9Zkjz9XJ5vwTm6IQ5xkwq0ZjHjGYgDzYiVuYxiTebZviQab1qWpOLdMxmzHYZy21uj5LrCWcax6mycp7ynYcMh46uKcZ2kiye8NykE/6/aaJ6SvGeHctnDLupM2Xez5biJKbTzum/ho5ynkBapzmfSbSB6nOfZTwoQoMJyYBe7KEOzSgHVenPifJyoUG7KEVHSgNYju2kbmxk1EIq0pZKpJ/0TChAU6rNmtr0pfLkBpX+KVNSyu2nQN2oJ9N5oKIS8KMDW6k9QxpUhHWUqhWl2VS7WFARNtWpMVXqzF5p1VtylZEl1elOC6lVdyYVqmgdJlgV9FRpuhWfcE2gXCVg1tnYVXtRtRdfu0pYv17VkgrFq0Bv2kxqLrWOdI0QYJUnWHgRNquNzWJOiSrWyvY0r4dtpleHGFE3eXZ4ljUXZtkpV9H+FbVMXCzE9P5KUNdCVp2xjZ1qucVaxb42raaNE2V3C1qQ1ta20QSubnSLPeM2zLfYVC5ui8jWwD5XYdH97XJ9QN3qYhWE2AWYdqWrWdxJtkXEhZ94+0Xe7XoXk5w9k3pLeVSLIrewhuTuMpnZ1pmGdr+O7S4WA8zc5tKQvfPCb2aXW2ADW3eFCU6XexdJ2knKd7gHBuNsB2teAadtiQ5+MHirx1thUdijAxXxiBM71t7c18MfnmINV8xi8/jXvltdMCBVDN+wQph//6XtjssbY3Ri2E/0RaqEs4Xis6qwxvy9cXg5vFoi8zieUZayk59lYllxWZQWliGSA6Xksnn5VWAO8zu1vP9lNfMKzaV6cyud12Y3XznNTGbWnOlsZIgOtVZmhmaVm+xnGSOxnHa+s6HfSugu43nNnVP0oid9Yj1bmtGH5touK23jKX/W0cniszDFvFm1bkrQMBZyhzOt6U1TrtOeLvWSQ/2rUY8W1j6GUap9Wms4QxrXkYs1pdFbzEt/GdjBNvSwZX1rRMXZUc5WNiyZ3exkJ/nYqJL2tHVdbWu3erzZlvO1HTtrqRWbTrw+GbTLvG1uo/uxwn00kH8oblSTW8Dmju+pA63hRq96XO4uNxm9/TJ/AzjHUsX3h/Udb0AH/OCM9fW4we1ql1qx4Aan99LYbXGPfxzk9eh4yElecpP+D2PkJ1f5ylnOtIm3HOYxl/ncEj5zm98c5/Gxd8553nOfM/DlPxf60Il+4ZoXHelJV3rldr50pz896SmH+tSpDnOpVx3rWQf51bXeda8PPOhfF/vYZcx1sp8d7TjOZdrZ3vaSm93tcZd7kI8+d7vfvbVhx/ve+Y5gvfcd8IGv998FX3jDk7Pph1f84rObeMY/HvK9dXzkKV95ZBPe8pnXfLQnv3nPfz5McAf96Ek/2c5fKURSKf0s6/6M1L8e9rGHjJwA3m/ZR2b1kV27N27fe9//Xt6WEP2ugc+d3L969yQq/vKZ33xs6BzzoXc+hY4/4+RnY/rZ1/72Vf+n6Gv+afvVB/H1F8Z9859f+7Rv/Z7TL36hfsZC6Jf//JevfvIXuv3uN9z6MUZ///8/9eyPrCaM+/Rv/+5vGgBQARcQAQXl+1DP/AxQjRrQRxjQAi8w4rSl9i4v/CTwCTbwRDBQBEcQ3o7mATsrAj3wyAZQ+UjQBV9QGQTwxS4L/VRQO0AQS2BQB3eQE2TQNRRM/mwwuH6wNHjQCI+wD3wQ/miwBoVwriiw/5BQCqcwC1wOBymuCZ0Ql4iQ96jQC78wBpRw9pgwCLXwBDMFDNNQDdUjQ04PBefPDK9QFtaQDulQDAMDCOkvDvkP5erQD7/wDuUiD/VQCM+wS/4QEZEwEMX+YhAJUQUNUVoSURJ1cBHVTfoA0AYhEXAmkRNfsBIz8BIx0QM1cRM60RRF8BM3rlIY8BHlUGZOERYdsQ1Jca0UcBRd8WdiURfhEPpwcRUtUAJp0VZ2kRizcBZ9kfOAUf+EsXGK0RkLsBf50NYu0ACZ8U6eERunLxVJ7Neo0f2sEYCyURzrLxqhENO8sfrAsXTGkR1lbxtbzFpIUPzU8YLa0R5h7x37C/8wcB6R8T/uESDd0GH88dnk8fjosWUCUiG58BilsRtH8CAJMh8XkiJLcG8QskJgMPcw0gQr0iMtMZk4sq40svREMmw+EiXh0QElEts8cfVY0gpTUiYXbgX/zXEaSZL0YLIhZ5InyQwNHdL2cBL0dNL7etIog49RiPK0eDAngbJkjhIqm2EiG25RjLApbXJJolIri2EqBW41jnD0lDIpt5IsR6EraZI0FPHzxJLmytItD+EsK25GpHAtnTIE3xIvny8msTIomdLz2HIl81Iw2SAuM07jwHLzAJNdBpMxxaAwda1JqDAx7TIHG9Myq3AnWRDiplDzFHNILhM0W6IoKRML1dLyPNNsQlM1u0/4BFJJAPE0SXMOV5M25yIzZ5AAvTA2+fIpa9M3je82GXIzdZPyUPMnfxM5RWQvNVPywLA4ZfMVk5M2H9Mi90QNn5M371I6a5M6ffIh/2Hz8YzzELfzN7uT324yDSFPPCORPLmzHJlzH9OT8dZzE9vTN80TKePRDucTOnPRPlUTPx/OyvZT8eizFP9zOt8TNweUQA3PQFsHQUEzQK+hEdewQPuzOCJ0NSc0Gir0Og/vQYdRQyVUQYWzOf0QRDE0MUY0NDlUKskQRQsvRJuRRS/TRWMQRmM08Gb0GmvUMm+UK3NUR/uOR8PRRxsTSH/BQ+tQ8Ip0HY80L5MUF5aUSQHPSesRSgVTSmmBSquU7640IbPULbcUFrrUS/EOTFsIPsPSNY/kFIlURf9xTYeyTSXqTfcuTTtyQV+yTnskFvE0ThckUJu0T2vRFNF0UP9LVBDTsVDn8k/vLk8vck7r0iRXSRchNVGXcwwjslITaRftLlJPck9LslGJ71PlLlT5aFL/slTTixjnLlU1J1PhtFPzwxlRdVZH00SvMlZt9VbdrldTaVfZtFbrAxuBNVdbMzsjb/hc9RnbLlg1cFR5NVnn61jZLlp9aVnVs1VNyivcMe2yNSRXdTKL9bty4/bCtVrbcgk5VVzRgxG3sFs97l29aVqJtV6zY1HlNV+L7F5db11BdV4/ZF/5NWCt7mA/818ptV/9iD7AVewaFo7ItTMHFkMK1mATVuUkFugoNvOa1Vs9BGK9jmOpZlvD02IzMl7/zFyx7GSjE2NJtWX/zyNmB+z1vq5k68djdzNnDxN80rXrehZnXnbxQBacyGZksU5ocWhY6XRm4RV2kpbqlraAdrbyjJZgV/YG8VHrNPY423UjU9b02AdolZZoM/RsU/Rpu6NmWXZtk2tho7BpGdZrX1Nra1JsU8xqtXNTw/ZtK4kbpdbp6pY955ZV/9ZhbalsoY5w63NvmTVvf6x3Fndw01ZO47ZcqRaxuNFmA3DqGvdAH5dbEfeF7tbhSLd9QBdCwZZPUZejrEtwi051RRRzK9Z17cN0T/d2Qa12s9JyZTRyLbWeYnfoZpdGRRdld5fYPoV4f854exR5+VN5v81OmrfnntdIo7dog9dT/4uKcov3d8m0Bxl1emHrqb7XecNXUXMXX7H3aMXKenHOfbG0d3l2fi+Wfc/tZmVXfTUVD8lXc2EKsNCX5+5XTev3arnXVymLgOW3f4OzbZ02gL8yf89rf4XOgPXUcDM3g0dSveI35jpYVDfYdic4LSvYgi/4eh9YV1lXZk2YhFTRbWF4kFhYWbX3Qst3c1Vy/Dx3hXF4RW0YUXVYgDUMhFdOhFUVgbGThr/H34745JJYVoUYU4mYglHY+lTY5qQYdKhYYK34hLE4i7E2roD4ckn4YxXYWCNY93x4i714MZcYcsE4hmUYb+l40ORYK+AYV/HYiSOugTeWj1NTj5O3if9Fx47v2I9VDY174ZCjWI3PNZEVmYsjzIwFdZCRdZEVBxQz9pKf7JPXFyT7+JErho3HTIuROJPHs5Clt5Qb43/5KZUhOZT995Q5eJXd9JZRmYx5t5F785eZuJIlmXMRjWtZbpi1tZZp9ZXPaJd5uZdlq5X904WpNZftVIyZ6phpeZrRdpm/NJJzK5u12Y1NLpnHtZvVtpmLZJzJOZpV55yjJ5jneJ115ZkvbptJLp7tdZ5Ht579IpaHNp+37ppDN50dNJxp9p7xeaDptaBXt29b958NpZ0Zupw/bp8H8qCBd5NNuaIt+p116aFpt58NOaMBt5iN7qJd7aQNaqTHLqT/hXeUFQiKI22jxRcT+rGjYXmhNaqhD62lJ/amdzShoXamP/CnGe6loXeorbSo2banfTqpwa6pIfij/TmolSOgXXqqSW2ps7eqwXmnnfmqpXql8+2rn7Sa2zets7aszTqma/ibbzisAXWs2fmo9y2uz6ytwzSiXzirX3eSofmpVaqvD7ikXTmwcfetdWevB6+uxzKxt/eu7bmxHbuwey2y2fWvrXmurfWyMbuy2e+zOXurAfuwxzav9XeWbXqtATa1q+6xiZmH06er/bWzE3Cxc262xXm1U7i3DXuzA3Oyc3iiBaiT2zi4Nfu1KzC2pzazE3ewSeqsXba4g7i0v/i4/3EktJku9t4tqvc4u2E1uku3u727tXH7tKlhuzVtuaH6vNG7uvPuus+4uQ+3vQMkvE32tlnqvvvwuT+3vLV6v/k7vfOrvjF5vEl5t5e302raqHIbthc87t5bXwu8Y+fbvyXcuSlck/ObZ37bmA8co/5bOhr85iwcpWu7i/s7wtdbtwOccQdcsFNanlU83IY7jhOcUEebokWc9Uhc7WB8wnWcwWV8gYE8yDX8xTHcm428wmmcsZV8xIW8jHlclJM7yn0cuaf7q1w8dT2clbHcqbmcu6l8yXFcSJ0cu6H8w1HcfNE8zaU8Pjlcbk08jc38cthco5k8zN18zPHcfpF8jf/jm6utnJvEvHAFPYH1XL8N/dDV/EQZnW+JnG4Jnbb1kaTpXNQU3XEBHVs5nXrJLZDvisytWs5JVtTjXMurFtFTy9MN+tTFGsSlRNMhutbfkNIrc9btOtfDpdWZdtXzDNQ/vdeH+Ne5wtJxHc61LdaZHdKZudmLONiFfdhFBdOVudjRTtJr3MYRu9v70s4B/NnJLtx9ttqtPdkddduhPdWD9tqvONrR+dydvd03fdxLeNrl/d2pu96xvdyP995hOt7DeN7p/d8xJdsRPt/zfN3fZNkX3dH9NOCZ+tir+OGnouFlveBb8uKJe9exeuGNut9Fe+JN9eN3PORNeuTh++D/pdXP62vjgXnlFbvlL5zPwf3kQ7bmqXnmhfnmV5zFCTnh223gLb7njXvfDb7kZTnm/S7lFTbqtzzjxSTipb7o063iwXrq3zzopdvLJfXVm2fr1frn6Xnp6zjsxT7rl/LouT7p1TntO+PsA33nPbjr7f7qHX7u/zjd+bntQzHu7bvuWb7s3frl2T7wIfDtzX7vB/3w8TfnBX7xdb3wYTbxtbvvEXnt/brqSf7yff7xG/3zlSL0Jf7uCz3vUX/yiTr1CWP0Tbv0wb71bTnzyfv1Ib72Kb/jdbnx6Xf11TX3NT72Jbv3Kf73PX/3aX3zOfnvhbXyDfX02zz4uf34Of/b/mW/+Xl++gm/+EU+8lV2+fF99qd88BU8+bMu+rF/6NF//bn/+2fz69N3+K1+/Mm//Ee9/R15+9/u+gkgPqYutz+MctJqAc568+4/GH4WWZpnIKor27oaGsszXds3nkcv3/uYLih0/IpG1TCpXDKbzic0GjtSqx0pNqvdSqzeF5f7HX/D5jM6XSGzWWp0O4580+v2Oz6fkvND+j9gWh9foNDgoV+h4iJjAmJf49LjYWSl5SWm1uRjZqdn12bZp0lo6OgpqmEpWerMalxrrOxs5SshLa6iLVXuwy5ib7Dw3i/vMGix1fEyczNOMquzdBa0zzRxNdv1dmR2EbejtxE4/3m5s3iVufozutt1u+i6vCC8i3p9z7z+vif+Dz/ANf5AcBt4JCDCJwbnlFvoLiHEiG8c2pNo0QBFDgUz5rvokQZHD/dCjvho8qQSkiJQJlQJAJzLFixnToiZYaTNmzR38iyR80rPeS7J/UwU9Ci2oeaKAkHq9ClGpjqhwlTZUCpQqjN/4uSq9StNrE3BTlNaVewGsie9Xi2q9q1HtHDPWW2LdupciGyJMs3rN6Dcv8PM8r2LV/C+vWcVI268EavjXoQLG46cOGdXzJY3SwvMOdbkxZU/L9Vs1zTp1Lk8qx4VWvTd1o9jZrYp+zZosbg/vYbNevcxxtukAi/e6bfxRv69fUNOPhg187rOp+vSTV25dHmGD1/Pbbu02+7i8SAfn2d5dOLmWwl/13c9fDjW45/Prn37WPrHoc/mr/+/E+UBKB9JAOH30oCYtFfWewk6mNJ8DxIYEmD4SdiNf+6FdyGHNwjYoRTonRYbiIEs2FmDJapISoQrhmifPgci6OIdJ9K1IY057tCijk2ICN5oPU6UIYM4CnkkAh8iqcOPQJK4pBk2NqMelEsqWaUNTY54JZZMSMkMlV32yKWYU8DIj4xlYvHlMmGq6SKZb/p0JpoHyqkQkSgaeSeIcfJJgZa18fhnEGwGlyKhHPqZKASBCtoco4XmeaOhkZq3qKUMOP7q5JOZZjnplIh6CiCmoyZJZ4UWmgoSqGCKump8pcJK20V2wipDpcK4eSt8sq5Ka62q8srid1tuOuxuvpoKrEVpIktCrsHs+mx3yo7KbLO2UltTq22+uu101nqKbbbbgcttsZR1e65s4mZKbrlBsttAtJJ9Oy9w7loKr0TO4rtAvavd++9t+kbKb7/aEnxAwLhMu3DBg86LcMLCQtwwLQ9D3JrBjFJcsbwLYzyLxhun1nGiH0fkr8jrPrenyRxLzK7KKyv878iylBwzZygTWrPNFuObs3dE8wyWz38CHXTIE7us68BHW5Y0n0sz3anT6aZHodTtznyu1XrdDPbT0v5G3XVjVN8ZtthCg2t0KjujjZjacrLddtPbwo2K3HP/Vfebd+ONtd5l2wuz344BrqbgLY397N6n9J34XIuX2bjjbiMbuWtnU175128fGy/hmxsuMOKf/x164aju9DivnPPmuepqWS4m5oOXfqvs/dBeO9KsU5u77rfT2Pt+qQMPl/FYEl+88Aef7vDvy1PVfJXPQz+5x9NnXL31T2EPpfaZmwu51v2lHz7z0ZvuelAs876+hsizf7XyosMfP+zj0l+k/e5nPvDNb3/8O1/s/qenAAowVdwbVvlAtrt3KZBS3msgSsZnpdGxRH7XqmCo8odBp2gQSRGU4AS7d8LOif9whEcp4ZFWiD/32Q2ErmqhC3sCQyHJcIaQ+mAPk8fAHN7nhwQL4gBTqDQbeguHRAwLDRNoQPH1b4lIVBABn2iSHY6JgzzxYMqYeCgnajGDUSxggQRTxbWJ8WVDLKO6yCjFNK5Oc1b04vfkCMe4nHFWePziGhnXRqjpcY+kK+Sv/ghIO9bwipd4oCGDZUScKXKReWOjIy0ByUii8I3Oq+TrAtmlC+osi5xMoiezB8pQMvJygzQbIk/pQFMua5WsRGDVXnm4VMqyiZv04xRt18pR6hJ1vOylG2kJRDpObZiqzGQtlIlMofQxkcEUpjM3CE0MxXKa1Jzk0GypQ1HGsJj+1OumN9fBRR1tk4+4FGQ7GfHLdH5znrW8ZvveiTtz5vGY9OynNCmIz7eA8ZniZKE//1lKcGaNmZ8pqDYPOjsZUbSiFk1G3Kp5T4c+lJzH4yfJLirSkZIUEnzT6DK5JjN9kg+kCy0pTGMq045IDqX+GyjosvnReC5ipj79KVCzgtCA7kuiSIFoF3lanaAytaklzShDaWbUo3q0RKQsmlOzqlWWZmKdOVLqWnSqoquyZ6tmPas99eDVnXJUNUhlK06Nida50jUjUE3rTdvq1qoqyqVYrStgA9uOuxJVenGtI1fhqlcACraxji0GYdEp0MXuNbFw8mtZH6vZzZripFH+JdtUocLXB5E1spw9LWqjUdPP6u+wiL3kikrr2dTStrbGWC1eJ0vZylq2T5g1rW2DK1yGDFWyRQ3t9UZLqt/OdrjOfa5QJ5rb47qWbmJ1kGxxC93tQhe4zP0ZWG8J2w5lt7jcPa9tvRvepFbXutdd7nr/gN75Cle9yHXlfbXyVtJ+17z0/e9j7dte6u4WN8qNVX+lC+AFO1bABR5efMWrROwm2HcMvrBgHazSluX3K/sdUHkVjOERn1XDHDFZhXPaWxCnuKskfnGJm2tcww44MgceT4gtDOMdN9XEdt1Yi/O54v/kWIg8PrJPfUwRFEf4gEOmT5FdjOQpy1TJDmH/coex+eReBfmRVP7yU2WcUB42+YXvxXGXNQnmNV/UygvBco17duZqpTmabL7zjdVqU91ueD0f9nOduYnnQa81CYWObZmpOudwBRo7hH70dO1w6LEmWtFbpnOl6wDpTc9Y03smcJ8RfOnrRBmLnD51nOkwaatm2syLNk6pvYzqWf9Yu50OY5b98mdMp9rWtP51PdxsEDg/mNfjvVSrhwTsZQdbzLHeZ65fu2oSJlsNzL72YJ3d6JZGW9d5NnC16YHtcUND2AMhdqiJ/G2vdXup5H63LcztD3SfWEK7Ts62ewrvfa9C3vigd635O+ri5Nvd/D44JbQdbnsvnNoDT1bD/qOE8IkPwt/NvljEXf3wiLW7EBT/uBwsDg+AL5m86+5ox00E8pWPQeTZxnjK1XjyzRTc4yy/eToUHnN2Ztzhx8Z3z7eA86GPQ+e9vmOxoTxzGwddE0R/Og9cjg6SX5nSr0b50UUM9a0TxOhJh2DTLf1ziO9cz1w/e9d9/Wxilt29Ywd328mD9rlHV8eFVWHWCb50mce9RnT/O3eMfGvw9l3a0/5IzVUO+L9LXRxUf/NX956XxANi8YBvvDceP2yeb7yZhfe05eeO+Wxo/tyc77ziwr6m0Ive6+lu6NcTdG85f17VrEf76KtR+nmT+ep8z7vgb0/03JcbyKrXr+8N/h/wrQkf5MTHqPFrn7bkT/74UWg+158P2egDnzqzT730rY19qGv/F7v/d0Tf7vnum3r8Qy//Ls5/cRNKHvnhF7f7cQ7/eHM/9n1FvYr53y7lH8vt3yvI38gZlPpN3/1NCAGunAH2W/+9Hnst4O8JoFw94MdFYCkg4Msp4ISBH/vJmgY6n+vVG8yNoHjUn89h4DmV4Aae4PJRUgMyHfXZnwraGQxSHAd2Vgq64P8BoIdZHxTsoAmqHeWdHhAGoQUK2RK+1NopVAaOWQVSYPodXhHloKBFoRQC1OAhnRXS3w22YBiGEBV2oX8lYeTVIO0JIRWxYRhEGhpa0BfmEhzS/hwLQtEdCt3dzeENySGuaSGguaHYleEfcqEf9uAmeODUgeGnadwT/hURJiL+9SHh7eH6NSEORmJmnSElkqAlOiIKYhIhWhInKmLCfSJCYOGFIOIglqIeCqI8haIqviAtkqIschksbsUkBsgt1iIU1iEunqJvjSEvYiI1/CIwdqIywhMytqEmFuIoMt8MLqM6PSLe5aKo7eIW9aKPNKM1pqE3GhsxWl00Olk5iqMhhiNjCWMjPSPWnaMpruMYeSI7Kh4gXqI2Kp0xIt44SgI43qOU5aMoVqM+huAb7iM+uqJAziJrtQ48nkw/SpJCVl5ANqSaPSSE/aMIymMHcaSh/10kRm6hOwaOGuoiN/pQyRlLRY6k2RGkHUYkb3lkN8oknpSkS2YkTA4jPb4jTbpTS74kQ+akfGFjIAalfuThLPUkIdkjUdqeRqIPSGYiQs7jNKrPVD6lhxjlQTKlT1ZlLKaj1tmkVg4BKzJcVlLlWdriVQ6HSJZlUUbl+5Alu/1kJ61kHKUlXOIKVxYkXqKRXW4P5LGkWO6lQ+7kV3plTAbmKtKll7ylYfqdXIKdXuLhRF4GUsodTkZmXCKmSVamZTKmgTgmQG4mZ9bHZM5RZsqeUl7jakoaZJ6msnmmM74mi11mFirmFJKmbJpJagJmYXJbSrpmcA7kUPamxP0mMP/xJtyJZj3pJluCJnIiA23iF3Ny3HByikG2o3ROZ6P05WIWp3A656NUHWFCp3c6WnVC23U2J3mep+nB53amJxJ2Z13aJlpmJ1b+5X7iJ31CiHJaU3uS3XtSI/rJJ3/+pwwmKOyJ5yfhZn8OZl4OqIL6AnjyZFuCln5yJ4NyqH9WqKQE6EZ9aH4WqIdKqIGaJ4guqIoe0Ule1obS4XzKKIWuKMBcaGJmqFRB6AKhZ0iZpo06nYimlINap4maoY8Go30G6VpS2JLeJ1jWCYk64IsGqSoMaV5NKRM2KUnOKJJWqZUyCY5+Zo3CWmv6UpJKYpmGaVIA6YOuqd7xaD2mKTP/gimbbiWW8hmdEimXGpyO9qid3mkN9Cl8wamZyiksFakOHqegXul6sp2hxmmMDuCf0qiWNuqc5Cmo7emIRml5omiEciqm8qGm0tilshqiRmeHAuqTriihqlurSuqRqmqLhmqljmpnxqYYRqpznCmtgqpbuimuhmSpZqOiduWY/urmIWitDqvNFetRHiuyQmsy3eohBqqzZuqjvumpwuik1qmXXmusVuirJiW27qqnBqu0HiajZiurUKtfNivafF/9iKo6Wqu7QuW2gqC9qma6suqqWuq65iue7ut4Dmy0lmsl4uucnivBUqeultO4el+q1ueyTmi3PuyNwmt49itl/37rWMrriXqsxpplshopwhqrwiZnyi6kw5YsEZwse2ZsFa6sGPAqXworzLqCzEIqzdZszxonw1brxP6nzb7izwKtweokyQpt0dLn0SLb05KarwZfwH7p1Hpn1KLZy3LrvyZq07Zfu+7sBQQtv4btXM6q2A5tU44t2QKK2R5sy+opx94r7zErsL7twjolonWtz36tssYnxs6t3sJt3eYo285r1S5q4lJq1k7n1q6g25oq4Crp1YorzoJo5JIj4Wbp5gJo56Im3xZuzB4umWauuVYsuzbubiYtzH4uxfptbVYuKmqDdqKugsIuo8nu7OpuDjyu4Y4u6WpK3F5h6PJp8f8KJesGbrgO74uYbu+i7Y6CrMs2b8MCb2/6LtDx7unSbsjm7cgur/MS69Kiq+v+rfa+6/FKpvCO76lAL8qub6emb87KL+i1r/tGBfzO7Pnyb/Kyr/j+KP7mL/3my+Qup9papP3q6wHn7/uWr8RiLz9Sr2ZKL+NK8GkWMIHibol6LyhaL9FyMNT+b+9h8AR7MNOCcNty79tqsHv2b/Tur+gGsOXCMMG6MHaKcAfjcPDSsJracL7y8EqZcOpS8Gz6MLjqsNaSsNKqcAMtLmwu8BGzMNkK8UwCcQxD8BkosUDorAPviAx7rRT7qxWXrgV3KRcjZxmTxgCTMROT6hmrZwP/f3GbtvEOx3HM0GsKXy6aUvHOrnE8YjHiajEcI3HtmhQdF7IXm+8Ypy0KKzAe69siJzLxhvHZGrL16LEcO7HjpnH2vvEaErHAGbEi8/H1erJsAjI0CnK82nGIRrKfivJeqnJoorLJqW4csjL5zvEX07JawvLRaPKzAnP12jJn+rINyvIdW7KQEjMk87IDI3NH6vK0Ruz1UbOjQjMBg7JiNbKGJnApiyzAYjOmSjMDKnMrQnEyevMWWzMlhwMzG68zS40wzzAnty47D685u50x9y0p+2I+5/IkvzM8E7ISknM1u3NpzrPyorNW7vMFInRCD/RCY7LFWjRBQws3e2s//3P0I1OpKYewRN8pRCsfRrtQPTPwPTNvSGc0O8QzIzO04uIyQMt0BWuz+5a0t/kxRIJzTZ+03fF0yep09Qn1Rv6zyQb0zVK0SxN1AI405aZvR9OLQme0UzshVEc1TCe1TQOwUT/sVRMUTuexOoMuUFttVltpWGvZVDdxVX+KUodzWjPpRvtzW7s1U8N1V0exK+tzXZvjXeP1WJdtXDfzYPv1VpdwYB807C72Ax826a41WfQ1z6S0XF9sioKvS+9yXnfzXn+OZa/zZ6u0Qz+lZAfPV4cTTb/0aE9xaRPlaQ9hajdo5Do2w7z1O8f2Js418iY2zxa2aEN24ep2cs22av8jdf2etdPatksSt2gJd9eE9k22tvh1dm7/Naq+dkz7Ngowdx17N0Y6d0KCt2BDd0Er99pqd3NjdzGq93YbtLai9we7d3iz9y3TdwT79G9T996St0CKNxnyNnDat4UC9+pZNyUDuDQaOD2XtW/yN0j79z0qOCRKeHmzsHfDN0FTODpa+IUHXYbjdoITeDqbd+JIdzavtBfi93+T+DLLdy+h+CvD+AV7uDVy+DiZ+Ik7uEYz+DUjeCLjuFX6+NzIOGvTOBoLuOa6+Ciz+CVruBkj+SY7OTsKuYQpuVQiNxhDeDsDOR1beVja+HuLeCVL+epSeTiC+TEad3TzOLqYuST/U/ZwM7mTsnmbr/abq7gA6/jr0jlr8rnqGLn66nkNEzlY+/lt2vmdazlVcznLArrGqvlHQnqgu3mBw3ksizkwSroZUXql4/mlE/oPG/oNI3qhonn8cvfGYvowe3oQmzqsKnqRW3qZi3oSY3nuwnoRo3qqq/pjtzTYyvqocnpYuXrtCHp8A3sn47rR6voJa3qvQzmzJzuvb7qzb2O1RztuT3uPy7neEntNCvuOg/p5Kzs+O3pkXztKZnsWVzW3E7a3t7C6Iy20d+86vXsXx3sVz7vUijvlIHuemztLi/Nmp7i+Pzu+H7d+lzvBY229fyK4+6Oxsw/Afye6L/XB97mv/3t0wtPgP3c8xPq7oEY8ULJ7x241yG/5xDsryVOkyWMoTKe8xWf8UPM714r8sTu4zIc6zrNpyx/SztN23AZ9o9N8pNu85K78E6sz0dd6z4fpz9/lxXNSxStA06+60uNq1Kskq6ti1f96w2Pu1T800nMuqT/R1+tv1z/z06t12VNt1mNQ2o89wz88JW69YNq6Yc792T+ml/fy28du2y/P19M92Nt9IuI9KvW9FlW94d/230dz4O/u4Gdyaz6+2sd9OU9+rxp9JFU85n936Nf3xts14tPt4YY+lI946QP26aP+Tqo+mX85529v5VM8C8p+5G9z62f3ywvoR2e+wK/46/6joeI3puajff3pvueXeu+39+8D/0czf/KPfO0f6u0LEIpTf/aT6/XLavHPLzZyf/TP4fEv5ei76BiSf/hL4fmPZvWXUWizf/q3+PPfd/kP+KfRP+Oz/PcTQHxMXW5/GOWk1R6Q9ebdfzAUx+wyTzRVV7Z1XziWG7K2b/xWc77HZ2DQ4SMWdUJkUrlkNp1PaMo4pYaiV2xWK6l2p1twWDwmQ71nNGCXZn/K43ac9KbX7Xd83iDnj/R/QLK+QY1Aw0PExApCRiuUxjRFJchBSctLzMwsSkZNz08uzjZQ0lJTIFHOx1SqUxbWUVfZWVpJWLnaXMTbM13fX1dewhNhIv5gimKv42Xm5qBkNGfpLeiv6WtswerYi+2f7ARvI3DycmzxVnN1GfSe9Xf4mPbe7nmRdXue+H3+z3yffgEX/ash0OBBBgStDVTIAV/DOQglTtQGsSBFjBYdYeQYT6M7hhoffnTT0eTJJCT9oDSosgNLmNlcHpmgcuTMQjF17jSBsyRPeD5zAiVaS+jKmiRv+iza1CmGoxuemos61SqoqBsj2FSX9epXmFmHgpVWlezZRGJ/QuBK1SxauAfVqonL7G1dvHbmvtyqtOvdvIHdihX8C3BhxJv2Su37cSnOxJGvzZVM63BlzJMWj6Xhd7DQzKF9URZd6nJp1C82c07o+P7v0dSxTauV7el0bdz1VrN1/ZlpbuCKSAcXDpv4cWSr6Q7pXc4rcuh4hkcHdJs6deXLW4t8Dfr6dzi0weuxPv54dubcfUM23/7KdPdvysfPjX67xccz6e9fAp9/mPn+S82+BTxzLkABE9TtOQXBQLDBzAgMpzlyGITwQmLEwxCLBzeMTEKo1DvQOA9LDIUwE80gMcUBlVPAwAo7ZPFC/2ZEQkYb8QIRRnAszNHGGn+cAUch0dqRwh6JLJK+IJdUbUUnJZOQR5mUjNK8Jq9cwUotpyKQynO47BI7Dcd0QUwzi7IPzMnQTJO4LN+0wE05dVoTySqhrJO/OPc88Tc/8/5Cj81pfAw0vj4PTQ9QRePKjtCy6GxUtEQnfVFPS8F6VMQYMc2UTBQ//ZM9UcnaFL/uGC0VVENXLdBTV5s6taH8XIr1ukpLlfRWuWb9p9a2eD2vTGER2LXYgHzNB1hIkS0tV1GPdXYfZe1hFs9pWww1W2mzDapadK7l1FttWy22W3LFBTcVdSFKtzZoP0X33fXW5aVdWuktd14t+dU3SXuLwVehf1GLN1N/C24zYGEGJkhhSol1NmGII2X4Fod/rRizgy2leONmLsY4VVJBTqzjST82eRmRWcl42ZVPlhhZlWM2rGVRXrbW5sJQbrRmnnXBWRWS9Qs6MJ8VBfpoo/6GbkRnp6OW2lZTkj50aaYtm5oPqLf2+ut5TrE6UKyzlgVsbkZEe222851t22nLNjuYtrvoum688+a66pnPhXXuXvU2pmjBCzd8GL7hnvhvwFs6PIe7H5d8cqRIGdtPuRsXm/KI6uX8c9BpsrxvYTPX/O3QPYg8ddYL31xxmhk/PdnWHSK8dtxDf93c0mWfvZ/cS7g9eOIf3930EpH/HavcVy/+eaeP931V5Ze3rfnhode+bem987Z66zXB3vPty1+7e1UX9z58inB33nz4fUW/5LinZ9+j1t+Pf38Q/SGdV/DdDxO10x//DLiX+Rnte/YT4Dvyl70DRhBcCaTaAv7X10CJsK6AEuQg/fwHO79dEIMISd0GO3hCbGXicnsK4AgtUUIIolCGCEwc7wDIQBfGMG8mnGEPd4a6FjYoiDksDud46EMkeoOCwaqfCInoOModMYlTFFgNh5igKz5xF1HUIRW96LbRgbB3TtQi7SYnxS+mkRJLbJarbFhG/EkOjWqkYyWsiEOEZRGOgThjF+v4R2iwMYU3xOMeAWa4OQJSkfQAYiFTpkdD/kGOflxkJXN2RzKOMZORjKPrKGlJUHYCk+mLnSM5uTDBJTKUq/xGIzd5qzee0oGeJB8rbSlKV5IyhK+UpSp388lbBtNuo/RgKXnZS2DizJfCZCZrrv4nRkIeE5m1/Noym8lMQY7LmLqcZie5l8xrhlN0zIMmLCHZTensEJziZOc9iKlAbp0TnXdQJzXbec9WhjGWbpTnPPVSN2viE5TZRJUFpenPTp1vnQJlKEHdRa59IlRtYAsoQxfpUDA28aASzRPaKmpRQGKUYBDtJ0fpwLaPgrSOIn0YSU1p0pB5dKEqZSdLNWZQbsI0pYO0GE19CgKbwgynxdTpLKs50582M6g/jOdLi8qyo9ozqSBdathcutGnolJqO51qEqvajnRFNKsdjRpXu+rDr4brqjkd60Sjh9Sz2jKt4ghrSdtakbLCNa6rnKsS10rUu+p1hX3dqyUJW/+Nujo1sMDYqmALW8nDBvKv8Fzst94q1ceKM7LJSCxWK+uMvGI2s9fcbBWHStnPGrVlZh2tBEvbsMlWMLXeZBhrW3vA194rtkycrWpr69jb0jG3IzutbHvr24DZNrj7Gy4sOsvW45LVXspdLvya67LdtjG6Wl0XdatbvuuyK7s83a50q+Xd72ovvJcsLm/LK9pfwje9A32ncdXn2fdCdbrAna9X6+veXUI3v9yVH3/7i9b/aldXdh2wg7pr4APPcL1Ea6+CGxzTCUI4wiic8Bov/GEQh1jEIyZxiU18YhSnWMUrZnGLXfxiGMdYxjOmcY1tfGMc51jHO+Zxj338YyD+B1nIQyZykY18ZCQnWclLZnKTnfxkKEdZylOmcpWtfGUsZ1nLW+Zyl738ZTCHWcxjJnOZzXxmNKdZzWtmc5vd/GY4x1nOc6Zzne18ZzznWc975nOf/fxnQAda0IMmdKENfWhEJ1rRi2Z0ox39aEhHWtKTpnSlLX1pTGda05vmdKc9/WlQh1rUoyZ1qU19alSnWtX9QumC+sgOgDAWJPRs9XuU+cLOgVYftFbonED33KiG5NXyiPXNds1rmdo6tIa4SE/HKZ9aC3vYGqWoqycJ61mPJtt1+Kayp8bsZmM4nyeNdnI+B2yv9eTcQyq2to/9z15HodqStIGz643seUv/+9pNTba+D4eKdgtt2+SOt4ryje/KHWPgZei2v/893ss6nJbEXrjW3s3tcj8h4wS/t37HDe2CJ2XdFV62ubmI7YvnIuAcP7jGN85wyHn82TAP+aimfd+W29x47K74LFYO8n4bvOZ4nXnTYg7voIvciBAfmrqXjvKjuzvqGB86E/CG8I5LvejhqfoDdMf0W/v66RRPudGnzvJgC/3lAOr52cpO9LQr/eT8znlj5g6DwRn77ECvu9WvTvW3u33vcE+3tfdN7bjr/OFQ/7jZG0/zpDtBb4APPEvT2fVF3R3nibf7zc/0c4sPnvBbU8zf+V75XCb89IUX+9gRz3qJp5Ln/qi3aR4arvbbi2Ehod+67tfu9V+DfbWGXzzZRS/44/se8ymZ/Opp/8zHcz3ynfd8gDnPG9c/qe10ez41fq+Z5o+++wMcP4e+35mR0/36wM/+57df+8tP3+/hl/44fF5+b/ed/e23PuxNXv1XAL37w7/8Wz/wq6f6KwLeyzq08z+5A8Bo0r/MOzztI0DxeT8HW74bkT3xw8BL8MDSk7/907xtMkD0I8EWyDut6z3lE8EDREC2GybLwzrSI77ie70abD0IXAMQJKfki0EXZD4ObMEq4L7oI0ITvA8U1CQJPMEdlAIBRL4jREIHlLyJA0IZ1CcWzMAgVMIn5CcLFLcv/8yQHvygH+TCMwyLKKyOIuxABUw9d0K6NCSwnSM5rdiXLbzAMoS+KcTCPowJFcQ1+0vALORDBnS+cDOYNYykRZSSPSyiMCS/SLTCR+SIQBTES/Q+NtDCQ4S8OeyZRtyjUJSZSQS3SpTETzS/U2yfUaS3TNSCOODERETEXFPEVcSgVgTFUuSjXDTETvTEP1TDW2zAYGwCXDDDPITFXhSUZcyhZtSRYWTDaEyLaRTCXSShZ5TDazS+SPDFWqRF1YuYagyfbHSUcYy/VPTGbwTHOHyKV8TEbcS7vVGheBSCd+SYcmygfDSSc6TBWXS8ZFTGfuSHe4TEenS/Y0TFgFTFg/+0ioJkxIH0kogkxn9cwF90w3Z0iofcon3kxrSxhYacvXRkxonUnI40lZIExoVExpUswJbsiI08hDekwo+kxpF0uZQkipiEo5PUlJwkxIuUwpfEvaHMiJ4EyqCUN8SBx6REw2LUxZCcnaO8iqnUxqL8wJ9Mwaqklq10yqsEuKU0yKbUxKjUyK40yazkibNUybGEw4ykyHXUybUMwZu0x6cBybo0xrkEip0so73ky7T0yraUxYrEyDuUlb9UysD8v4IYRI58SpccTKjMS1xcTEC0TLqETHUMR7YsTLVMTKKUzP6AnN0zRc0MTc+sjL7UItC0E8xkSMrEy9gczdcslNb/pMSyhMJvKE1pPE2czE01uU2eEU6WIM7ITE3488e4BMzafEHftMvd5E3yAE6EnE2UbE6TMc6T0E7UXE6hFM3j9M6dWM3etE55bKV04EXzhE7qZM72NBvuhEns/M31NM3nxM36BJ74ZM/8DMB8kk50BM/u5MwI2c+KMVBWfE8//ErZvE+9nE+7QFCRdNAJrUUAtUrxFEzk/BAJLZgOxUYF1dAMTbC1oDwKBdEQpc8T9ciES8/p7E/GY9CzIE8i+tDAgVG4JNDv3FCyxFHLSlH8XNHzfDYXDVAezUwZvU4gHU4INcolhU0hlckmVbwjRQkafdEnxb6ZK1IM1dEFFVBo/5xShbFRKPLRzhxRtzxMdlRTuRTTGAVT/qxILs1RoFJOL3VEN/0XMhWIPQXLLBXRt1zTOpXIPB1SMyXDrZvTM2VTpERTxLhSF+pT/fzTAQ1Ui6xSKE3SMj3UTIXTZxC9NuxSS23UO+XQQqUXSSXIU/3UVaVNTtXKVh1ASt3AU608RSXVQTVRTf0KSB2hVOXKWQ3SXbXPYWXVYJW5KDXMXAXUEr0UxxRUvhDVUiXFY4WYX6UtTyXWYi3Pba3QbM2ga12FWv3BW2XWZl3UUcXHWLXDZbXFV/1STN3MdKXJeJXPdeXBap2QPyxXgUxWP31X17xXHHTURxXYCgRYdG1XaP9VHYcMV0RF2AdEU37t1GlF0m+dUYftv3olSYi12I1VyG59049N0HwVWYJ11cGcWMX0V28dWbjo1cosWRRlWV29WJvs2IelWWy12YWNVnid1xB5VnNlWGkFWlOVWX3JWHACyJC1PYMNAJgF16d1OqSF2vFTWRV1WZTVWcScWiZs2q7F2fCsWB/kWkM1265JU0YdW4V1QjI12KjFWK+NQLANzqo1VrEdWqIt2rUdT6XVQbSl2pXE2vkLXP+820lFXOHzWTzkWaed27N13Dit23VS27alWKPV15nsUcn9V8P1W8iNlb91q87l28vd0ZNl274NWMXdkre1QMK1Rso93Lz/tdfWVb/SJdTazdrcxdLPdd3QpcfgpdLUlV0wjd3JLV7e1Vq5vd2BJdvJnN2fhV55XV293VuzHF7qk97YO90JRFC4Hd1D2t2NEd/x5V7ORV9lxV46tV5hdF5xrdpTDFXVZd+E9V48hd8S7N3sJd8H1d+Wpd6V9V+FM1/iFWBavU/kDWD39VjlrYu4vR8DDhMApt3fvV/7xeAMdk8CZuDM/d+vXGAWRWBh5V+7rWC6NeETvuB+/To7/WArneAR7GBj2UURPlgVhlUUTiga1lMGa2H1dWAK7NmbstxzxcrXnc0b1uEgFlzAMq8chs8fFuIGRmIYeuGCMuINbtAe3oNt/1xi4GXhnEUt0o3irBErMWzi+r3C9n0oEj1iphTj7X1gzd3cwlVjwCVjHpbjmEHjCN1h3bxi082osuVj4zXk76XjOo7gPFbkrdXj88Xj7JxizIXhOOa/9R2pN97imx3X9aRf52TeQ7avMhZl9vFjZDXj66W/mgUwPQTkOZZktzVlLxbaBJbliCXlPcblA6XkNWbcDjsvI9XlV+5iJjZmq81PMHZiWsbbJ6ZgWKYeXx5gXr7j4MNiN9ZiYL7kanZWll3mRiZhEH5mOmzm5UHlAo5mZsZkXM1iwjRnIL7biARnxoRnkyUv29TeaJnmSsXfYr7mQdZkbbYdK7bjVXamMP82aA+GY3q1sD9W531WLKa15zZmYyIWqoFmjE6m53v253V+z/CV6EulaLQUaVlF5OUdw3gmZuFl5YMWno7O4ZDGL1nTZ3nh55S2ZC5Ov1Z2aCkdwun16DHOyZkWMHvrZg/F6RJ2ZG7l6YoW6Hfuwn7m5ISey6Im53yG6Js2adQVZ21l54bG550+P2om6aBlZC806+rE6qNW5aNB55pGZs916otmqqhuwrJm6ljm2quGZChW67mBa71D6aVWaSp250LOvZfWjrmeyL5maWiW68VtKeRy65VewnbO5ruuwsUO5XmGX8FeQaT2Ya42QsIeZ7rWYMrO6OFTbYSOaXh+bFf//mu9PmWlRm3ADus6DOjV3uwczGSNHuWGlG2fTmetzqPSTs6uHmLXxmjfbqy6xm1lBu3btubRTtrqfuTcDuobfOreTmypzmuv/uhkJW6x1jWbRm7JVtXjrmfLzmyqXmyYdkfTi+7C3lXz1mmOXW/c3W7Q5e/IfW/dFurDJvDtBCjefm1nPsn8rmLBQGvrkeGsPm3rFnDuZugBN3CTqG/7vu8kbXAN328KH9P0Rm8Ax+Hrlu7x1m7/jmTOhm+C9vCLBXEMz98T398Wv8z2zuUch/EY7+kVv1G8Tt/aJm8KpfH4ptYb19gi59US5/EmV88bh/DEffHmZmwZd1kk3+bQ/6Dy35Hwto7yBA9ugdNfLwdWK7/yAvfqLf/xZwFzj3nyhx5xz+7xDE/yyxZzNIduVzxtMG5zMn9zOVeaQTduOhduPffdFE9rCw/zi3nMal5iQFdw1YTzR9rxOV/0xrbzC8fzNff0Aw+7jeZ0b1bovXZw8U70sF3yr230DS/0Gdb0Og9yRKd1PrXqC51oW8dXU491VUdxV7dES/8ZWB9sWYftGt9kN6/r+e5fTuVosST1V8l1Rt/1Tf/1NsV0Qtd2Qz/2Ecb2MW927172bH9VaIf0YC/11Zx0cRdHbiebYhdtac9p/W7pQ0/kec906T33r7b2qm5Fdsdyd2f1FM53J/8leF6/dxWvd3pHddt9V36X8hSP3YCHl2HfdoTfZYOv8I1PdYbP8mR/X4CN+D5fdMKteNk489O5+G5P94X/eG7294UOcWFfTJJ/XIVPZlue9pxXd2//0YwHw6CnbZiX+J6f9aJncXCXL3K/9p9H9qb/dKNF+dhQ+ZIe+sh++rXW+pkH9V/mcg4W45sP93HHX6pvXJe31ngvc6y3waUv+3a/8rgP+yYee7gHchY8e3dt+63me0dP+pI/+lp3+KkO+eIkTlCeQbjfYr0X9HfHnLVXucj3+bT3eMJveJo/eLFNfNbGZh1t/IEX/P5++/8W/QDv+MIHex+P+tI3ZM4Hb5n+//ZEpe7JP2nT37zKl1q/d2/Ux3yvt/zLJ9naff3qNfxKLjrQ73KWh/fHl3fSJ/LeB3nVv/Pfr/lZJX57z31fL7vkL9DaN5PlN3btv+Xbd/rgf/nz1/3dxX6QjX58b7zuV9fmr5Pwd/7YZ3aBH+n7P/3nJ3rAJ4D4mGrQ/jDGRau9OGsm+9tgKHqkpJSeqK4nmrJwLM903bqmre987//AIAyXExqPyBVxkmwulkynlAL9TEdVx3XLvWW7gWwHDBSTQeIop3q+pAHtuDzzntvv+Dwrre+3+X41dYE9gH2DhIkaiFxvEIohZoqOWgeSeoyQmj+Zm56foEqXoaQyhqX+GJ2oi6N5qquHp42UDbAIrYG0CV+xuLa/VLLAw8R2wsXFx8SvyJa+xsrNZ8xOtJW2z5i6zlB+1NKo3+Dj5DvR5aTnv+LJ2XLs6EnwR9a12LyQ1txL3urxm/P+CRwYDB/BdO7W+Wtn0NXCg2UeIqkHB1ZCh472Eel3ESLHhh5DipQo8g5JhB2XpQQTsKSgk0YoWgSZaBvNOS1d/oGps+e9mz4xshmXcybQdzyDqigqRGa4ox/5QJ2WVOkUplaz5lupddZUo19VhmVZtWuqshH1leJqMuNYr2/NSsEqty60uHblsQ1FF+XQXnjzWujLySnfwDgp4ojaTXAcwo4jz93+KzntX2mQP6HVS7nyrc2F1R6+7EnxYsCkPV8Frbq1D9auh3QuDRvg7Gq182Z+Xc8vP9+miwhNHXti7uLI99xOLhsx7eWjid91rno3b9HPGwMPbkUbdOZYvoMfH0k8eVbUNVlXb77p8brrC/XWnB4pdzV44p8vWH+//8Ht/cefdpi9V1OAlknnn37mGMaegrbd191wBArYIIIWLohhhmtAqNCGhBgoH4hdMXghdpP0Z5+EFXmnIoe7iAgjczJaWGNiJDK2kY47wmjiidts5WGEEvJ42owv5YhkbDf+1+RjT+anpA0/alWlDoo9WOFaLLZI4W9LznBlmNVNqeGLuUT+2RaaQYyplJtJomhkCcB0OScKZIqpZp6C7Tmen13AueaQVJkZlKB6OnjnCx9ytygJfMaAaKTwGXoeoHARKpamZFna06SmZBkimyua9iijlIZHaqplruqjp526OqqsPIBakq2SKuoimHU6itqWrNKBabBvwgresFfgWiingSLrkbLNySkls0TqOh21xEJLrE5ddustpNsdWaCxUNIK5LfodpspsL9mdCp+vYq6a7r03scludv6VO++RYbrAjnaNmsulvwWLO9q+CYqLY7sgjXfvAZHnPC5vOaLpMQYBxxnw/EODLG4X2YsMp1baCyKtaX2yNDDIY/sMrzVcmyxky/+14wqfR6Xm/O02CZr88+PlOxsqCjv1HPM7n4MtMv37jxzsUsD3bTMPzl9bcU8R13zulgfWDQZE+O2cMpajzw11U+TV/bPZ6vcjMk+W53r2i9z7baQLJP9L1Fj60y3yG3fnbaAf9ftL558hy3w0ZMVDrjQiivct92IJ550y47vGzjIgxOeecabVz6u3Hrv3e7nmkNOeq2mMtw1MkFijjq6oYveueezG1w7uODAjTDjYufOL+Wm4/x13GhXPfQGwut+uO23n9l8vbvfDPvyxJN8+vTqqg6837Ev+/r1vgPIPb3VWx/9peej/zzvo38fXfKxtu9t9trPH379gscvPz3+9qPd++C3vv0EUID6698wyhc8+i3ugCzCHwFB0TrxKfBt2BMWBO00QPUV8Fgb5GACObey/xnPgRIM4eUat7rQHK8JkfPe+MCnwoOdEIUflEwN+zXC4mEwhsjDYRB3+MI2ZZBKFXzgBf1HQtcRMW/ZMWEOrfTEJN5wicoT4iqOeJYqFjFBWpRdDIEoQx8Oyov7QxoWp9gqNKZRS2FUYxN7R0Y3uHFy7qnjxvAYkxbSEHpXu6MelTNINjZKkFycmxTTVEjj+FFViAwbA/f4Rs7EcYuXdGQkGwnJTBoyK5uc5MkW+S7hoCOR5gslKZeCSkpWEoCrjCIgnajKOaaIk5+RTF8tg9bDWS6wlZb0JCx3uUYwzpCCwSmjGQVyTAsSM39XLGYu+/RMaSrNlx2Lpde0OaJqYrOPuCSaDYNpzR9+05neNKUsmzlNx6RzmXBkJybDacRHluedE4QhMJFoRU3K03L5pCU+JxRNW7YzMgMNKN6EOSt7KrGcykyol1jITaN9kXUVXSfMBCpRXarzoI4pAAA7;" vertex="1" parent="1">
          <mxGeometry x="386.26" y="560" width="67.47" height="60" as="geometry" />
        </mxCell>
        <mxCell id="Q793fqZeEDO45ezUEoH8-36" value="ArtNetEventPlayer App" style="text;strokeColor=none;align=left;fillColor=none;html=1;verticalAlign=middle;whiteSpace=wrap;rounded=0;fontSize=14;" vertex="1" parent="1">
          <mxGeometry x="100" y="460" width="190" height="30" as="geometry" />
        </mxCell>
      </root>
    </mxGraphModel>
  </diagram>
</mxfile>
